<mxfile host="app.diagrams.net" modified="2020-12-04T22:14:38.157Z" agent="5.0 (Windows)" etag="EJyQvkpL9iHAH_mAIvEZ" version="13.10.4" type="github" pages="4">
  <diagram id="rUuLZ0CwC7RdWQS-LIV7" name="AddUser">
    <mxGraphModel dx="868" dy="479" grid="0" gridSize="10" guides="1" tooltips="1" connect="1" arrows="1" fold="1" page="1" pageScale="1" pageWidth="850" pageHeight="1100" math="0" shadow="0">
      <root>
        <mxCell id="APJ0qdRp9DO12fEd-1KZ-0" />
        <mxCell id="APJ0qdRp9DO12fEd-1KZ-1" parent="APJ0qdRp9DO12fEd-1KZ-0" />
        <mxCell id="rYR8tvmNt55ugRfYuJDr-0" value="&lt;div&gt;&amp;lt;&amp;lt;interface&amp;gt;&amp;gt;&lt;/div&gt;&lt;div&gt;GUI Text Field&lt;br&gt;&lt;/div&gt;" style="rounded=0;whiteSpace=wrap;html=1;" parent="APJ0qdRp9DO12fEd-1KZ-1" vertex="1">
          <mxGeometry x="350" y="90" width="120" height="60" as="geometry" />
        </mxCell>
        <mxCell id="BtOhsKKlzof6iraWUFeg-1" value="&lt;div&gt;&amp;lt;&amp;lt;component&amp;gt;&amp;gt;&lt;/div&gt;&lt;div&gt;Database&lt;/div&gt;" style="rounded=0;whiteSpace=wrap;html=1;" parent="APJ0qdRp9DO12fEd-1KZ-1" vertex="1">
          <mxGeometry x="350" y="440" width="120" height="60" as="geometry" />
        </mxCell>
        <mxCell id="ukFtWzsqPvSTF6hQrSi1-1" style="edgeStyle=orthogonalEdgeStyle;rounded=0;orthogonalLoop=1;jettySize=auto;html=1;exitX=0.25;exitY=0;exitDx=0;exitDy=0;startArrow=none;startFill=0;startSize=10;endArrow=halfCircle;endFill=0;endSize=10;" parent="APJ0qdRp9DO12fEd-1KZ-1" source="BtOhsKKlzof6iraWUFeg-2" edge="1">
          <mxGeometry relative="1" as="geometry">
            <mxPoint x="380" y="210" as="targetPoint" />
          </mxGeometry>
        </mxCell>
        <mxCell id="4gtPtELoiswF_e7B3GmN-2" style="edgeStyle=orthogonalEdgeStyle;rounded=0;orthogonalLoop=1;jettySize=auto;html=1;startArrow=none;startFill=0;startSize=14;endArrow=halfCircle;endFill=0;endSize=13;" parent="APJ0qdRp9DO12fEd-1KZ-1" edge="1">
          <mxGeometry relative="1" as="geometry">
            <mxPoint x="540" y="290" as="targetPoint" />
            <mxPoint x="470" y="290" as="sourcePoint" />
          </mxGeometry>
        </mxCell>
        <mxCell id="BtOhsKKlzof6iraWUFeg-2" value="&lt;div&gt;&amp;lt;&amp;lt;component&amp;gt;&amp;gt;&lt;/div&gt;&lt;div&gt;addUser&lt;br&gt;&lt;/div&gt;" style="rounded=0;whiteSpace=wrap;html=1;" parent="APJ0qdRp9DO12fEd-1KZ-1" vertex="1">
          <mxGeometry x="350" y="270" width="120" height="60" as="geometry" />
        </mxCell>
        <mxCell id="BtOhsKKlzof6iraWUFeg-3" value="" style="endArrow=halfCircle;html=1;exitX=0.5;exitY=0;exitDx=0;exitDy=0;endFill=0;" parent="APJ0qdRp9DO12fEd-1KZ-1" edge="1">
          <mxGeometry width="50" height="50" relative="1" as="geometry">
            <mxPoint x="450" y="270" as="sourcePoint" />
            <mxPoint x="450" y="200" as="targetPoint" />
          </mxGeometry>
        </mxCell>
        <mxCell id="BtOhsKKlzof6iraWUFeg-4" value="" style="endArrow=none;html=1;startArrow=oval;startFill=0;startSize=13;" parent="APJ0qdRp9DO12fEd-1KZ-1" edge="1">
          <mxGeometry width="50" height="50" relative="1" as="geometry">
            <mxPoint x="450" y="190" as="sourcePoint" />
            <mxPoint x="450" y="150" as="targetPoint" />
          </mxGeometry>
        </mxCell>
        <mxCell id="BtOhsKKlzof6iraWUFeg-5" value="&amp;lt;&amp;lt;getUserInfo&amp;gt;&amp;gt;" style="text;html=1;align=center;verticalAlign=middle;resizable=0;points=[];autosize=1;" parent="APJ0qdRp9DO12fEd-1KZ-1" vertex="1">
          <mxGeometry x="460" y="180" width="110" height="20" as="geometry" />
        </mxCell>
        <mxCell id="BtOhsKKlzof6iraWUFeg-6" value="" style="endArrow=none;html=1;startArrow=halfCircle;startFill=0;startSize=10;" parent="APJ0qdRp9DO12fEd-1KZ-1" edge="1">
          <mxGeometry width="50" height="50" relative="1" as="geometry">
            <mxPoint x="410" y="380" as="sourcePoint" />
            <mxPoint x="409.5" y="330" as="targetPoint" />
          </mxGeometry>
        </mxCell>
        <mxCell id="BtOhsKKlzof6iraWUFeg-7" value="" style="endArrow=oval;html=1;startArrow=none;startFill=0;endFill=0;endSize=14;" parent="APJ0qdRp9DO12fEd-1KZ-1" edge="1">
          <mxGeometry width="50" height="50" relative="1" as="geometry">
            <mxPoint x="410" y="440" as="sourcePoint" />
            <mxPoint x="410" y="390" as="targetPoint" />
          </mxGeometry>
        </mxCell>
        <mxCell id="BtOhsKKlzof6iraWUFeg-8" value="&amp;lt;&amp;lt;addToDb&amp;gt;&amp;gt;" style="text;html=1;align=center;verticalAlign=middle;resizable=0;points=[];autosize=1;" parent="APJ0qdRp9DO12fEd-1KZ-1" vertex="1">
          <mxGeometry x="420" y="370" width="90" height="20" as="geometry" />
        </mxCell>
        <mxCell id="ukFtWzsqPvSTF6hQrSi1-0" value="" style="endArrow=none;html=1;endFill=0;endSize=22;startArrow=oval;startFill=0;startSize=16;" parent="APJ0qdRp9DO12fEd-1KZ-1" edge="1">
          <mxGeometry width="50" height="50" relative="1" as="geometry">
            <mxPoint x="380" y="200" as="sourcePoint" />
            <mxPoint x="380" y="150" as="targetPoint" />
          </mxGeometry>
        </mxCell>
        <mxCell id="ukFtWzsqPvSTF6hQrSi1-2" value="&amp;lt;&amp;lt;displayOutput&amp;gt;&amp;gt;" style="text;html=1;align=center;verticalAlign=middle;resizable=0;points=[];autosize=1;" parent="APJ0qdRp9DO12fEd-1KZ-1" vertex="1">
          <mxGeometry x="240" y="190" width="120" height="20" as="geometry" />
        </mxCell>
        <mxCell id="4gtPtELoiswF_e7B3GmN-1" style="edgeStyle=orthogonalEdgeStyle;rounded=0;orthogonalLoop=1;jettySize=auto;html=1;exitX=0;exitY=0.5;exitDx=0;exitDy=0;startArrow=none;startFill=0;startSize=14;endArrow=oval;endFill=0;endSize=13;" parent="APJ0qdRp9DO12fEd-1KZ-1" source="4gtPtELoiswF_e7B3GmN-0" edge="1">
          <mxGeometry relative="1" as="geometry">
            <mxPoint x="550" y="290" as="targetPoint" />
          </mxGeometry>
        </mxCell>
        <mxCell id="4gtPtELoiswF_e7B3GmN-0" value="&lt;div&gt;&amp;lt;&amp;lt;component&amp;gt;&amp;gt;&lt;/div&gt;&lt;div&gt;Encryption&lt;br&gt;&lt;/div&gt;" style="rounded=0;whiteSpace=wrap;html=1;" parent="APJ0qdRp9DO12fEd-1KZ-1" vertex="1">
          <mxGeometry x="620" y="260" width="120" height="60" as="geometry" />
        </mxCell>
        <mxCell id="4gtPtELoiswF_e7B3GmN-3" value="&amp;lt;&amp;lt;encryptPassword&amp;gt;&amp;gt;" style="text;html=1;align=center;verticalAlign=middle;resizable=0;points=[];autosize=1;" parent="APJ0qdRp9DO12fEd-1KZ-1" vertex="1">
          <mxGeometry x="480" y="320" width="140" height="20" as="geometry" />
        </mxCell>
      </root>
    </mxGraphModel>
  </diagram>
  <diagram id="Y52d5ZKDyGfbD1pGySOu" name="AddCharges">
    <mxGraphModel dx="189" dy="489" grid="0" gridSize="10" guides="1" tooltips="1" connect="1" arrows="1" fold="1" page="1" pageScale="1" pageWidth="850" pageHeight="1100" math="0" shadow="0">
      <root>
        <mxCell id="0BvvpoM5XRBTN5z0QNdg-0" />
        <mxCell id="0BvvpoM5XRBTN5z0QNdg-1" parent="0BvvpoM5XRBTN5z0QNdg-0" />
        <mxCell id="r_D2R8uP9Z3UjWwnqE-W-1" value="" style="edgeStyle=orthogonalEdgeStyle;rounded=0;orthogonalLoop=1;jettySize=auto;html=1;startArrow=none;startFill=0;startSize=19;endArrow=oval;endFill=0;endSize=17;" parent="0BvvpoM5XRBTN5z0QNdg-1" source="0BvvpoM5XRBTN5z0QNdg-2" edge="1">
          <mxGeometry relative="1" as="geometry">
            <mxPoint x="210" y="181" as="targetPoint" />
          </mxGeometry>
        </mxCell>
        <mxCell id="r_D2R8uP9Z3UjWwnqE-W-5" style="edgeStyle=orthogonalEdgeStyle;rounded=0;orthogonalLoop=1;jettySize=auto;html=1;exitX=1;exitY=0.5;exitDx=0;exitDy=0;startArrow=none;startFill=0;startSize=19;endArrow=oval;endFill=0;endSize=17;" parent="0BvvpoM5XRBTN5z0QNdg-1" source="0BvvpoM5XRBTN5z0QNdg-2" edge="1">
          <mxGeometry relative="1" as="geometry">
            <mxPoint x="480" y="141" as="targetPoint" />
          </mxGeometry>
        </mxCell>
        <mxCell id="0BvvpoM5XRBTN5z0QNdg-2" value="&lt;div&gt;&amp;lt;&amp;lt;interface&amp;gt;&amp;gt;&lt;/div&gt;&lt;div&gt;GUI Text Field&lt;br&gt;&lt;/div&gt;" style="rounded=0;whiteSpace=wrap;html=1;" parent="0BvvpoM5XRBTN5z0QNdg-1" vertex="1">
          <mxGeometry x="150" y="71" width="120" height="60" as="geometry" />
        </mxCell>
        <mxCell id="r_D2R8uP9Z3UjWwnqE-W-0" value="" style="edgeStyle=orthogonalEdgeStyle;rounded=0;orthogonalLoop=1;jettySize=auto;html=1;startArrow=none;startFill=0;startSize=16;endArrow=halfCircle;endFill=0;endSize=12;" parent="0BvvpoM5XRBTN5z0QNdg-1" source="0BvvpoM5XRBTN5z0QNdg-3" edge="1">
          <mxGeometry relative="1" as="geometry">
            <mxPoint x="210" y="191" as="targetPoint" />
          </mxGeometry>
        </mxCell>
        <mxCell id="r_D2R8uP9Z3UjWwnqE-W-12" style="edgeStyle=orthogonalEdgeStyle;rounded=0;orthogonalLoop=1;jettySize=auto;html=1;exitX=1;exitY=0.5;exitDx=0;exitDy=0;startArrow=none;startFill=0;startSize=19;endArrow=oval;endFill=0;endSize=16;" parent="0BvvpoM5XRBTN5z0QNdg-1" source="0BvvpoM5XRBTN5z0QNdg-3" edge="1">
          <mxGeometry relative="1" as="geometry">
            <mxPoint x="350" y="271" as="targetPoint" />
          </mxGeometry>
        </mxCell>
        <mxCell id="r_D2R8uP9Z3UjWwnqE-W-16" style="edgeStyle=orthogonalEdgeStyle;rounded=0;orthogonalLoop=1;jettySize=auto;html=1;exitX=0.25;exitY=1;exitDx=0;exitDy=0;startArrow=none;startFill=0;startSize=14;endArrow=halfCircle;endFill=0;endSize=13;" parent="0BvvpoM5XRBTN5z0QNdg-1" source="0BvvpoM5XRBTN5z0QNdg-3" edge="1">
          <mxGeometry relative="1" as="geometry">
            <mxPoint x="180" y="401" as="targetPoint" />
          </mxGeometry>
        </mxCell>
        <mxCell id="0BvvpoM5XRBTN5z0QNdg-3" value="&lt;div&gt;&amp;lt;&amp;lt;component&amp;gt;&amp;gt;&lt;/div&gt;&lt;div&gt;addCharges&lt;br&gt;&lt;/div&gt;" style="rounded=0;whiteSpace=wrap;html=1;" parent="0BvvpoM5XRBTN5z0QNdg-1" vertex="1">
          <mxGeometry x="150" y="241" width="120" height="60" as="geometry" />
        </mxCell>
        <mxCell id="r_D2R8uP9Z3UjWwnqE-W-4" style="edgeStyle=orthogonalEdgeStyle;rounded=0;orthogonalLoop=1;jettySize=auto;html=1;exitX=0.5;exitY=0;exitDx=0;exitDy=0;startArrow=none;startFill=0;startSize=19;endArrow=halfCircle;endFill=0;endSize=11;" parent="0BvvpoM5XRBTN5z0QNdg-1" source="r_D2R8uP9Z3UjWwnqE-W-2" edge="1">
          <mxGeometry relative="1" as="geometry">
            <mxPoint x="480" y="161" as="targetPoint" />
          </mxGeometry>
        </mxCell>
        <mxCell id="r_D2R8uP9Z3UjWwnqE-W-10" style="edgeStyle=orthogonalEdgeStyle;rounded=0;orthogonalLoop=1;jettySize=auto;html=1;exitX=0.5;exitY=1;exitDx=0;exitDy=0;startArrow=none;startFill=0;startSize=19;endArrow=oval;endFill=0;endSize=16;" parent="0BvvpoM5XRBTN5z0QNdg-1" source="r_D2R8uP9Z3UjWwnqE-W-2" edge="1">
          <mxGeometry relative="1" as="geometry">
            <mxPoint x="480" y="361" as="targetPoint" />
          </mxGeometry>
        </mxCell>
        <mxCell id="r_D2R8uP9Z3UjWwnqE-W-13" style="edgeStyle=orthogonalEdgeStyle;rounded=0;orthogonalLoop=1;jettySize=auto;html=1;exitX=0;exitY=0.5;exitDx=0;exitDy=0;startArrow=none;startFill=0;startSize=14;endArrow=halfCircle;endFill=0;endSize=13;" parent="0BvvpoM5XRBTN5z0QNdg-1" source="r_D2R8uP9Z3UjWwnqE-W-2" edge="1">
          <mxGeometry relative="1" as="geometry">
            <mxPoint x="360" y="271" as="targetPoint" />
          </mxGeometry>
        </mxCell>
        <mxCell id="r_D2R8uP9Z3UjWwnqE-W-2" value="&lt;div&gt;&amp;lt;&amp;lt;component&amp;gt;&amp;gt;&lt;/div&gt;&lt;div&gt;AdminLogin&lt;br&gt;&lt;/div&gt;" style="rounded=0;whiteSpace=wrap;html=1;" parent="0BvvpoM5XRBTN5z0QNdg-1" vertex="1">
          <mxGeometry x="420" y="241" width="120" height="60" as="geometry" />
        </mxCell>
        <mxCell id="r_D2R8uP9Z3UjWwnqE-W-3" value="&amp;lt;&amp;lt;getChargeInformation&amp;gt;&amp;gt;" style="text;html=1;align=center;verticalAlign=middle;resizable=0;points=[];autosize=1;" parent="0BvvpoM5XRBTN5z0QNdg-1" vertex="1">
          <mxGeometry x="220" y="171" width="160" height="20" as="geometry" />
        </mxCell>
        <mxCell id="r_D2R8uP9Z3UjWwnqE-W-6" value="&amp;lt;&amp;lt;getLoginCredentials&amp;gt;&amp;gt;" style="text;html=1;align=center;verticalAlign=middle;resizable=0;points=[];autosize=1;" parent="0BvvpoM5XRBTN5z0QNdg-1" vertex="1">
          <mxGeometry x="480" y="141" width="160" height="20" as="geometry" />
        </mxCell>
        <mxCell id="r_D2R8uP9Z3UjWwnqE-W-7" value="&lt;div&gt;&lt;br&gt;&lt;/div&gt;&lt;div&gt;&lt;br&gt;&lt;/div&gt;" style="text;html=1;align=center;verticalAlign=middle;resizable=0;points=[];autosize=1;" parent="0BvvpoM5XRBTN5z0QNdg-1" vertex="1">
          <mxGeometry x="290" y="426" width="20" height="30" as="geometry" />
        </mxCell>
        <mxCell id="r_D2R8uP9Z3UjWwnqE-W-9" style="edgeStyle=orthogonalEdgeStyle;rounded=0;orthogonalLoop=1;jettySize=auto;html=1;exitX=1;exitY=0.5;exitDx=0;exitDy=0;startArrow=none;startFill=0;startSize=19;endArrow=halfCircle;endFill=0;endSize=11;" parent="0BvvpoM5XRBTN5z0QNdg-1" source="r_D2R8uP9Z3UjWwnqE-W-8" edge="1">
          <mxGeometry relative="1" as="geometry">
            <mxPoint x="480" y="371" as="targetPoint" />
          </mxGeometry>
        </mxCell>
        <mxCell id="_ZDBPK7lSFRtpQAL9qDg-0" style="edgeStyle=orthogonalEdgeStyle;rounded=0;orthogonalLoop=1;jettySize=auto;html=1;exitX=0;exitY=0.5;exitDx=0;exitDy=0;startArrow=none;startFill=0;startSize=14;endArrow=oval;endFill=0;endSize=13;" parent="0BvvpoM5XRBTN5z0QNdg-1" source="r_D2R8uP9Z3UjWwnqE-W-8" edge="1">
          <mxGeometry relative="1" as="geometry">
            <mxPoint x="180" y="401" as="targetPoint" />
          </mxGeometry>
        </mxCell>
        <mxCell id="r_D2R8uP9Z3UjWwnqE-W-8" value="&lt;div&gt;&amp;lt;&amp;lt;component&amp;gt;&amp;gt;&lt;/div&gt;&lt;div&gt;Database&lt;br&gt;&lt;/div&gt;" style="rounded=0;whiteSpace=wrap;html=1;" parent="0BvvpoM5XRBTN5z0QNdg-1" vertex="1">
          <mxGeometry x="280" y="411" width="120" height="60" as="geometry" />
        </mxCell>
        <mxCell id="r_D2R8uP9Z3UjWwnqE-W-11" value="&amp;lt;&amp;lt;checkCredentials&amp;gt;&amp;gt;" style="text;html=1;align=center;verticalAlign=middle;resizable=0;points=[];autosize=1;" parent="0BvvpoM5XRBTN5z0QNdg-1" vertex="1">
          <mxGeometry x="493" y="352" width="134" height="18" as="geometry" />
        </mxCell>
        <mxCell id="r_D2R8uP9Z3UjWwnqE-W-14" value="&amp;lt;&amp;lt;login&amp;gt;&amp;gt;" style="text;html=1;align=center;verticalAlign=middle;resizable=0;points=[];autosize=1;" parent="0BvvpoM5XRBTN5z0QNdg-1" vertex="1">
          <mxGeometry x="330" y="291" width="70" height="20" as="geometry" />
        </mxCell>
        <mxCell id="_ZDBPK7lSFRtpQAL9qDg-1" value="&amp;lt;&amp;lt;insertRecord&amp;gt;&amp;gt;" style="text;html=1;align=center;verticalAlign=middle;resizable=0;points=[];autosize=1;" parent="0BvvpoM5XRBTN5z0QNdg-1" vertex="1">
          <mxGeometry x="190" y="381" width="110" height="20" as="geometry" />
        </mxCell>
        <mxCell id="1KN_psqOtUP6KYfmQrgA-0" value="" style="endArrow=oval;html=1;endFill=0;endSize=14;" edge="1" parent="0BvvpoM5XRBTN5z0QNdg-1">
          <mxGeometry width="50" height="50" relative="1" as="geometry">
            <mxPoint x="540" y="270.5" as="sourcePoint" />
            <mxPoint x="587" y="270.5" as="targetPoint" />
          </mxGeometry>
        </mxCell>
        <mxCell id="1KN_psqOtUP6KYfmQrgA-3" style="edgeStyle=orthogonalEdgeStyle;rounded=0;orthogonalLoop=1;jettySize=auto;html=1;exitX=0;exitY=0.5;exitDx=0;exitDy=0;endArrow=halfCircle;endFill=0;endSize=11;" edge="1" parent="0BvvpoM5XRBTN5z0QNdg-1" source="1KN_psqOtUP6KYfmQrgA-2">
          <mxGeometry relative="1" as="geometry">
            <mxPoint x="596" y="271" as="targetPoint" />
          </mxGeometry>
        </mxCell>
        <mxCell id="1KN_psqOtUP6KYfmQrgA-2" value="Encryption" style="rounded=0;whiteSpace=wrap;html=1;" vertex="1" parent="0BvvpoM5XRBTN5z0QNdg-1">
          <mxGeometry x="701" y="241" width="120" height="60" as="geometry" />
        </mxCell>
        <mxCell id="1KN_psqOtUP6KYfmQrgA-4" value="&amp;lt;&amp;lt;EncryptPassword&amp;gt;&amp;gt;" style="text;html=1;align=center;verticalAlign=middle;resizable=0;points=[];autosize=1;" vertex="1" parent="0BvvpoM5XRBTN5z0QNdg-1">
          <mxGeometry x="551" y="230" width="134" height="18" as="geometry" />
        </mxCell>
      </root>
    </mxGraphModel>
  </diagram>
  <diagram id="g2hip7DmW2aXxMmxixf6" name="payCharges">
    <mxGraphModel dx="189" dy="489" grid="0" gridSize="10" guides="1" tooltips="1" connect="1" arrows="1" fold="1" page="1" pageScale="1" pageWidth="850" pageHeight="1100" math="0" shadow="0">
      <root>
        <mxCell id="o1U7pOWKb4e2-C12Hc4e-0" />
        <mxCell id="o1U7pOWKb4e2-C12Hc4e-1" parent="o1U7pOWKb4e2-C12Hc4e-0" />
        <mxCell id="kvjqeFdl-s6JHgCzIYXw-2" style="edgeStyle=orthogonalEdgeStyle;rounded=0;orthogonalLoop=1;jettySize=auto;html=1;exitX=0.75;exitY=1;exitDx=0;exitDy=0;startArrow=none;startFill=0;startSize=14;endArrow=oval;endFill=0;endSize=13;" parent="o1U7pOWKb4e2-C12Hc4e-1" source="o1U7pOWKb4e2-C12Hc4e-2" edge="1">
          <mxGeometry relative="1" as="geometry">
            <mxPoint x="290" y="165" as="targetPoint" />
          </mxGeometry>
        </mxCell>
        <mxCell id="Txd__PKAfKwo9zWXBHOz-5" style="edgeStyle=orthogonalEdgeStyle;rounded=0;orthogonalLoop=1;jettySize=auto;html=1;exitX=1;exitY=0.5;exitDx=0;exitDy=0;startArrow=none;startFill=0;startSize=14;endArrow=halfCircle;endFill=0;endSize=11;" parent="o1U7pOWKb4e2-C12Hc4e-1" source="o1U7pOWKb4e2-C12Hc4e-2" edge="1">
          <mxGeometry relative="1" as="geometry">
            <mxPoint x="500" y="135" as="targetPoint" />
          </mxGeometry>
        </mxCell>
        <mxCell id="o1U7pOWKb4e2-C12Hc4e-2" value="&lt;div&gt;&amp;lt;&amp;lt;interface&amp;gt;&amp;gt;&lt;/div&gt;&lt;div&gt;GUI Text Field&lt;br&gt;&lt;/div&gt;" style="rounded=0;whiteSpace=wrap;html=1;" parent="o1U7pOWKb4e2-C12Hc4e-1" vertex="1">
          <mxGeometry x="200" y="65" width="120" height="60" as="geometry" />
        </mxCell>
        <mxCell id="kvjqeFdl-s6JHgCzIYXw-1" style="edgeStyle=orthogonalEdgeStyle;rounded=0;orthogonalLoop=1;jettySize=auto;html=1;exitX=0.75;exitY=0;exitDx=0;exitDy=0;startArrow=none;startFill=0;startSize=14;endArrow=halfCircle;endFill=0;endSize=10;" parent="o1U7pOWKb4e2-C12Hc4e-1" source="kvjqeFdl-s6JHgCzIYXw-0" edge="1">
          <mxGeometry relative="1" as="geometry">
            <mxPoint x="290" y="175" as="targetPoint" />
          </mxGeometry>
        </mxCell>
        <mxCell id="Txd__PKAfKwo9zWXBHOz-2" style="edgeStyle=orthogonalEdgeStyle;rounded=0;orthogonalLoop=1;jettySize=auto;html=1;exitX=1;exitY=0.5;exitDx=0;exitDy=0;startArrow=none;startFill=0;startSize=14;endArrow=oval;endFill=0;endSize=14;" parent="o1U7pOWKb4e2-C12Hc4e-1" source="kvjqeFdl-s6JHgCzIYXw-0" edge="1">
          <mxGeometry relative="1" as="geometry">
            <mxPoint x="390" y="255" as="targetPoint" />
          </mxGeometry>
        </mxCell>
        <mxCell id="-b95Hkb9FhqtMwTolk68-4" style="edgeStyle=orthogonalEdgeStyle;rounded=0;orthogonalLoop=1;jettySize=auto;html=1;exitX=0.5;exitY=1;exitDx=0;exitDy=0;startArrow=none;startFill=0;startSize=14;endArrow=halfCircle;endFill=0;endSize=15;" parent="o1U7pOWKb4e2-C12Hc4e-1" source="kvjqeFdl-s6JHgCzIYXw-0" edge="1">
          <mxGeometry relative="1" as="geometry">
            <mxPoint x="280" y="395" as="targetPoint" />
          </mxGeometry>
        </mxCell>
        <mxCell id="kvjqeFdl-s6JHgCzIYXw-0" value="&lt;div&gt;&amp;lt;&amp;lt;component&amp;gt;&amp;gt;&lt;/div&gt;&lt;div&gt;payCharges&lt;br&gt;&lt;/div&gt;" style="rounded=0;whiteSpace=wrap;html=1;" parent="o1U7pOWKb4e2-C12Hc4e-1" vertex="1">
          <mxGeometry x="200" y="225" width="120" height="60" as="geometry" />
        </mxCell>
        <mxCell id="kvjqeFdl-s6JHgCzIYXw-3" value="&amp;lt;&amp;lt;getPaymentAmount&amp;gt;&amp;gt;" style="text;html=1;align=center;verticalAlign=middle;resizable=0;points=[];autosize=1;" parent="o1U7pOWKb4e2-C12Hc4e-1" vertex="1">
          <mxGeometry x="128" y="156" width="145" height="18" as="geometry" />
        </mxCell>
        <mxCell id="Txd__PKAfKwo9zWXBHOz-1" style="edgeStyle=orthogonalEdgeStyle;rounded=0;orthogonalLoop=1;jettySize=auto;html=1;exitX=0;exitY=0.5;exitDx=0;exitDy=0;startArrow=none;startFill=0;startSize=14;endArrow=halfCircle;endFill=0;endSize=10;" parent="o1U7pOWKb4e2-C12Hc4e-1" source="kvjqeFdl-s6JHgCzIYXw-5" edge="1">
          <mxGeometry relative="1" as="geometry">
            <mxPoint x="400" y="255" as="targetPoint" />
          </mxGeometry>
        </mxCell>
        <mxCell id="Txd__PKAfKwo9zWXBHOz-4" style="edgeStyle=orthogonalEdgeStyle;rounded=0;orthogonalLoop=1;jettySize=auto;html=1;exitX=0.5;exitY=0;exitDx=0;exitDy=0;startArrow=none;startFill=0;startSize=14;endArrow=oval;endFill=0;endSize=14;" parent="o1U7pOWKb4e2-C12Hc4e-1" source="kvjqeFdl-s6JHgCzIYXw-5" edge="1">
          <mxGeometry relative="1" as="geometry">
            <mxPoint x="500" y="145" as="targetPoint" />
          </mxGeometry>
        </mxCell>
        <mxCell id="-b95Hkb9FhqtMwTolk68-0" style="edgeStyle=orthogonalEdgeStyle;rounded=0;orthogonalLoop=1;jettySize=auto;html=1;exitX=0.5;exitY=1;exitDx=0;exitDy=0;startArrow=none;startFill=0;startSize=14;endArrow=halfCircle;endFill=0;endSize=12;" parent="o1U7pOWKb4e2-C12Hc4e-1" source="kvjqeFdl-s6JHgCzIYXw-5" edge="1">
          <mxGeometry relative="1" as="geometry">
            <mxPoint x="500" y="335" as="targetPoint" />
          </mxGeometry>
        </mxCell>
        <mxCell id="fMCB3vp5_V9pdvqyl7y7-0" style="edgeStyle=orthogonalEdgeStyle;rounded=0;orthogonalLoop=1;jettySize=auto;html=1;exitX=1;exitY=0.5;exitDx=0;exitDy=0;endArrow=halfCircle;endFill=0;endSize=11;" edge="1" parent="o1U7pOWKb4e2-C12Hc4e-1" source="kvjqeFdl-s6JHgCzIYXw-5">
          <mxGeometry relative="1" as="geometry">
            <mxPoint x="623" y="255" as="targetPoint" />
          </mxGeometry>
        </mxCell>
        <mxCell id="kvjqeFdl-s6JHgCzIYXw-5" value="&lt;div&gt;&amp;lt;&amp;lt;component&amp;gt;&amp;gt;&lt;/div&gt;&lt;div&gt;StudentLogin&lt;br&gt;&lt;/div&gt;" style="rounded=0;whiteSpace=wrap;html=1;" parent="o1U7pOWKb4e2-C12Hc4e-1" vertex="1">
          <mxGeometry x="440" y="225" width="120" height="60" as="geometry" />
        </mxCell>
        <mxCell id="Txd__PKAfKwo9zWXBHOz-3" value="&amp;lt;&amp;lt;getStudentId&amp;gt;&amp;gt;" style="text;html=1;align=center;verticalAlign=middle;resizable=0;points=[];autosize=1;" parent="o1U7pOWKb4e2-C12Hc4e-1" vertex="1">
          <mxGeometry x="320" y="275" width="110" height="20" as="geometry" />
        </mxCell>
        <mxCell id="Txd__PKAfKwo9zWXBHOz-6" value="&amp;lt;&amp;lt;getLoginInfo&amp;gt;&amp;gt;" style="text;html=1;align=center;verticalAlign=middle;resizable=0;points=[];autosize=1;" parent="o1U7pOWKb4e2-C12Hc4e-1" vertex="1">
          <mxGeometry x="510" y="125" width="110" height="20" as="geometry" />
        </mxCell>
        <mxCell id="-b95Hkb9FhqtMwTolk68-1" style="edgeStyle=orthogonalEdgeStyle;rounded=0;orthogonalLoop=1;jettySize=auto;html=1;exitX=0.5;exitY=0;exitDx=0;exitDy=0;startArrow=none;startFill=0;startSize=14;endArrow=oval;endFill=0;endSize=15;" parent="o1U7pOWKb4e2-C12Hc4e-1" source="Txd__PKAfKwo9zWXBHOz-7" edge="1">
          <mxGeometry relative="1" as="geometry">
            <mxPoint x="500" y="345" as="targetPoint" />
          </mxGeometry>
        </mxCell>
        <mxCell id="-b95Hkb9FhqtMwTolk68-5" style="edgeStyle=orthogonalEdgeStyle;rounded=0;orthogonalLoop=1;jettySize=auto;html=1;exitX=0;exitY=0.5;exitDx=0;exitDy=0;startArrow=none;startFill=0;startSize=14;endArrow=oval;endFill=0;endSize=15;" parent="o1U7pOWKb4e2-C12Hc4e-1" source="Txd__PKAfKwo9zWXBHOz-7" edge="1">
          <mxGeometry relative="1" as="geometry">
            <mxPoint x="280" y="405" as="targetPoint" />
          </mxGeometry>
        </mxCell>
        <mxCell id="Txd__PKAfKwo9zWXBHOz-7" value="&lt;div&gt;&amp;lt;&amp;lt;component&amp;gt;&amp;gt;&lt;/div&gt;&lt;div&gt;Database&lt;br&gt;&lt;/div&gt;" style="rounded=0;whiteSpace=wrap;html=1;" parent="o1U7pOWKb4e2-C12Hc4e-1" vertex="1">
          <mxGeometry x="440" y="395" width="120" height="60" as="geometry" />
        </mxCell>
        <mxCell id="fMCB3vp5_V9pdvqyl7y7-1" style="edgeStyle=orthogonalEdgeStyle;rounded=0;orthogonalLoop=1;jettySize=auto;html=1;exitX=0;exitY=0.4;exitDx=0;exitDy=0;endArrow=oval;endFill=0;endSize=13;exitPerimeter=0;" edge="1" parent="o1U7pOWKb4e2-C12Hc4e-1" source="Txd__PKAfKwo9zWXBHOz-8">
          <mxGeometry relative="1" as="geometry">
            <mxPoint x="629" y="255" as="targetPoint" />
          </mxGeometry>
        </mxCell>
        <mxCell id="Txd__PKAfKwo9zWXBHOz-8" value="&lt;div&gt;&amp;lt;&amp;lt;component&amp;gt;&amp;gt;&lt;/div&gt;&lt;div&gt;Encryption&lt;br&gt;&lt;/div&gt;" style="rounded=0;whiteSpace=wrap;html=1;" parent="o1U7pOWKb4e2-C12Hc4e-1" vertex="1">
          <mxGeometry x="703" y="231" width="120" height="60" as="geometry" />
        </mxCell>
        <mxCell id="Txd__PKAfKwo9zWXBHOz-15" value="&amp;lt;&amp;lt;encryptPassword&amp;gt;&amp;gt;" style="text;html=1;align=center;verticalAlign=middle;resizable=0;points=[];autosize=1;" parent="o1U7pOWKb4e2-C12Hc4e-1" vertex="1">
          <mxGeometry x="599" y="204" width="133" height="18" as="geometry" />
        </mxCell>
        <mxCell id="-b95Hkb9FhqtMwTolk68-2" value="&amp;lt;&amp;lt;checkCredentials&amp;gt;&amp;gt;" style="text;html=1;align=center;verticalAlign=middle;resizable=0;points=[];autosize=1;" parent="o1U7pOWKb4e2-C12Hc4e-1" vertex="1">
          <mxGeometry x="350" y="328" width="134" height="18" as="geometry" />
        </mxCell>
        <mxCell id="-b95Hkb9FhqtMwTolk68-6" value="&amp;lt;&amp;lt;addNewTransaction&amp;gt;&amp;gt;" style="text;html=1;align=center;verticalAlign=middle;resizable=0;points=[];autosize=1;" parent="o1U7pOWKb4e2-C12Hc4e-1" vertex="1">
          <mxGeometry x="170" y="425" width="150" height="20" as="geometry" />
        </mxCell>
      </root>
    </mxGraphModel>
  </diagram>
  <diagram id="1wzU1umJ06EHqtjQU-Fl" name="ER_Diagram">
    <mxGraphModel dx="1327" dy="677" grid="1" gridSize="10" guides="1" tooltips="1" connect="1" arrows="1" fold="1" page="1" pageScale="1" pageWidth="850" pageHeight="1100" math="0" shadow="0">
      <root>
        <mxCell id="0Ox-fh44xJBKeiEa8GLi-0" />
        <mxCell id="0Ox-fh44xJBKeiEa8GLi-1" parent="0Ox-fh44xJBKeiEa8GLi-0" />
        <mxCell id="0Ox-fh44xJBKeiEa8GLi-14" style="edgeStyle=orthogonalEdgeStyle;rounded=0;orthogonalLoop=1;jettySize=auto;html=1;exitX=0;exitY=0.75;exitDx=0;exitDy=0;entryX=1;entryY=0.5;entryDx=0;entryDy=0;endArrow=none;endFill=0;endSize=13;" edge="1" parent="0Ox-fh44xJBKeiEa8GLi-1" source="0Ox-fh44xJBKeiEa8GLi-4" target="0Ox-fh44xJBKeiEa8GLi-12">
          <mxGeometry relative="1" as="geometry" />
        </mxCell>
        <mxCell id="0Ox-fh44xJBKeiEa8GLi-15" style="edgeStyle=orthogonalEdgeStyle;rounded=0;orthogonalLoop=1;jettySize=auto;html=1;exitX=0;exitY=0.5;exitDx=0;exitDy=0;entryX=1;entryY=1;entryDx=0;entryDy=0;endArrow=none;endFill=0;endSize=13;" edge="1" parent="0Ox-fh44xJBKeiEa8GLi-1" source="0Ox-fh44xJBKeiEa8GLi-4" target="0Ox-fh44xJBKeiEa8GLi-10">
          <mxGeometry relative="1" as="geometry" />
        </mxCell>
        <mxCell id="0Ox-fh44xJBKeiEa8GLi-17" style="edgeStyle=orthogonalEdgeStyle;rounded=0;orthogonalLoop=1;jettySize=auto;html=1;exitX=0;exitY=0;exitDx=0;exitDy=0;entryX=1;entryY=1;entryDx=0;entryDy=0;endArrow=none;endFill=0;endSize=13;" edge="1" parent="0Ox-fh44xJBKeiEa8GLi-1" source="0Ox-fh44xJBKeiEa8GLi-4" target="0Ox-fh44xJBKeiEa8GLi-9">
          <mxGeometry relative="1" as="geometry" />
        </mxCell>
        <mxCell id="0Ox-fh44xJBKeiEa8GLi-18" style="edgeStyle=orthogonalEdgeStyle;rounded=0;orthogonalLoop=1;jettySize=auto;html=1;exitX=0.25;exitY=0;exitDx=0;exitDy=0;entryX=0.667;entryY=0.975;entryDx=0;entryDy=0;entryPerimeter=0;endArrow=none;endFill=0;endSize=13;" edge="1" parent="0Ox-fh44xJBKeiEa8GLi-1" source="0Ox-fh44xJBKeiEa8GLi-4" target="0Ox-fh44xJBKeiEa8GLi-8">
          <mxGeometry relative="1" as="geometry" />
        </mxCell>
        <mxCell id="0Ox-fh44xJBKeiEa8GLi-19" style="edgeStyle=orthogonalEdgeStyle;rounded=0;orthogonalLoop=1;jettySize=auto;html=1;exitX=0.75;exitY=0;exitDx=0;exitDy=0;entryX=0.286;entryY=1;entryDx=0;entryDy=0;entryPerimeter=0;endArrow=none;endFill=0;endSize=13;" edge="1" parent="0Ox-fh44xJBKeiEa8GLi-1" source="0Ox-fh44xJBKeiEa8GLi-4" target="0Ox-fh44xJBKeiEa8GLi-5">
          <mxGeometry relative="1" as="geometry" />
        </mxCell>
        <mxCell id="0Ox-fh44xJBKeiEa8GLi-20" style="edgeStyle=orthogonalEdgeStyle;rounded=0;orthogonalLoop=1;jettySize=auto;html=1;exitX=1;exitY=0;exitDx=0;exitDy=0;entryX=0.017;entryY=0.7;entryDx=0;entryDy=0;entryPerimeter=0;endArrow=none;endFill=0;endSize=13;" edge="1" parent="0Ox-fh44xJBKeiEa8GLi-1" source="0Ox-fh44xJBKeiEa8GLi-4" target="0Ox-fh44xJBKeiEa8GLi-6">
          <mxGeometry relative="1" as="geometry" />
        </mxCell>
        <mxCell id="0Ox-fh44xJBKeiEa8GLi-21" style="edgeStyle=orthogonalEdgeStyle;rounded=0;orthogonalLoop=1;jettySize=auto;html=1;exitX=1;exitY=0.25;exitDx=0;exitDy=0;entryX=0;entryY=0.5;entryDx=0;entryDy=0;endArrow=none;endFill=0;endSize=13;" edge="1" parent="0Ox-fh44xJBKeiEa8GLi-1" source="0Ox-fh44xJBKeiEa8GLi-4" target="0Ox-fh44xJBKeiEa8GLi-7">
          <mxGeometry relative="1" as="geometry" />
        </mxCell>
        <mxCell id="0Ox-fh44xJBKeiEa8GLi-23" value="" style="edgeStyle=orthogonalEdgeStyle;rounded=0;orthogonalLoop=1;jettySize=auto;html=1;endArrow=none;endFill=0;endSize=13;" edge="1" parent="0Ox-fh44xJBKeiEa8GLi-1" source="0Ox-fh44xJBKeiEa8GLi-4" target="0Ox-fh44xJBKeiEa8GLi-22">
          <mxGeometry relative="1" as="geometry" />
        </mxCell>
        <mxCell id="0Ox-fh44xJBKeiEa8GLi-4" value="Student" style="rounded=0;whiteSpace=wrap;html=1;" vertex="1" parent="0Ox-fh44xJBKeiEa8GLi-1">
          <mxGeometry x="360" y="150" width="120" height="60" as="geometry" />
        </mxCell>
        <mxCell id="0Ox-fh44xJBKeiEa8GLi-5" value="firstName" style="ellipse;whiteSpace=wrap;html=1;" vertex="1" parent="0Ox-fh44xJBKeiEa8GLi-1">
          <mxGeometry x="430" y="40" width="70" height="40" as="geometry" />
        </mxCell>
        <mxCell id="0Ox-fh44xJBKeiEa8GLi-6" value="lastName" style="ellipse;whiteSpace=wrap;html=1;" vertex="1" parent="0Ox-fh44xJBKeiEa8GLi-1">
          <mxGeometry x="510" y="80" width="60" height="40" as="geometry" />
        </mxCell>
        <mxCell id="0Ox-fh44xJBKeiEa8GLi-7" value="birthDate" style="ellipse;whiteSpace=wrap;html=1;" vertex="1" parent="0Ox-fh44xJBKeiEa8GLi-1">
          <mxGeometry x="530" y="140" width="60" height="40" as="geometry" />
        </mxCell>
        <mxCell id="0Ox-fh44xJBKeiEa8GLi-8" value="Address" style="ellipse;whiteSpace=wrap;html=1;" vertex="1" parent="0Ox-fh44xJBKeiEa8GLi-1">
          <mxGeometry x="350" y="40" width="60" height="40" as="geometry" />
        </mxCell>
        <mxCell id="0Ox-fh44xJBKeiEa8GLi-9" value="Email" style="ellipse;whiteSpace=wrap;html=1;" vertex="1" parent="0Ox-fh44xJBKeiEa8GLi-1">
          <mxGeometry x="280" y="70" width="60" height="40" as="geometry" />
        </mxCell>
        <mxCell id="0Ox-fh44xJBKeiEa8GLi-10" value="studentId" style="ellipse;whiteSpace=wrap;html=1;fontStyle=4" vertex="1" parent="0Ox-fh44xJBKeiEa8GLi-1">
          <mxGeometry x="250" y="120" width="60" height="40" as="geometry" />
        </mxCell>
        <mxCell id="0Ox-fh44xJBKeiEa8GLi-12" value="Password" style="ellipse;whiteSpace=wrap;html=1;" vertex="1" parent="0Ox-fh44xJBKeiEa8GLi-1">
          <mxGeometry x="240" y="180" width="60" height="40" as="geometry" />
        </mxCell>
        <mxCell id="0Ox-fh44xJBKeiEa8GLi-25" value="" style="edgeStyle=orthogonalEdgeStyle;rounded=0;orthogonalLoop=1;jettySize=auto;html=1;endArrow=none;endFill=0;endSize=13;fontStyle=1;strokeWidth=3;startArrow=blockThin;startFill=0;" edge="1" parent="0Ox-fh44xJBKeiEa8GLi-1" source="0Ox-fh44xJBKeiEa8GLi-22" target="0Ox-fh44xJBKeiEa8GLi-24">
          <mxGeometry relative="1" as="geometry" />
        </mxCell>
        <mxCell id="0Ox-fh44xJBKeiEa8GLi-33" style="edgeStyle=orthogonalEdgeStyle;rounded=0;orthogonalLoop=1;jettySize=auto;html=1;exitX=1;exitY=0.5;exitDx=0;exitDy=0;entryX=0;entryY=0.5;entryDx=0;entryDy=0;startArrow=none;startFill=0;endArrow=none;endFill=0;endSize=4;strokeWidth=1;" edge="1" parent="0Ox-fh44xJBKeiEa8GLi-1" source="0Ox-fh44xJBKeiEa8GLi-22" target="0Ox-fh44xJBKeiEa8GLi-28">
          <mxGeometry relative="1" as="geometry" />
        </mxCell>
        <mxCell id="0Ox-fh44xJBKeiEa8GLi-22" value="partakesIn" style="rhombus;whiteSpace=wrap;html=1;rounded=0;" vertex="1" parent="0Ox-fh44xJBKeiEa8GLi-1">
          <mxGeometry x="380" y="240" width="80" height="80" as="geometry" />
        </mxCell>
        <mxCell id="0Ox-fh44xJBKeiEa8GLi-31" style="edgeStyle=orthogonalEdgeStyle;rounded=0;orthogonalLoop=1;jettySize=auto;html=1;exitX=1;exitY=0.5;exitDx=0;exitDy=0;entryX=0;entryY=0.5;entryDx=0;entryDy=0;startArrow=none;startFill=0;endArrow=none;endFill=0;endSize=4;strokeWidth=1;" edge="1" parent="0Ox-fh44xJBKeiEa8GLi-1" source="0Ox-fh44xJBKeiEa8GLi-24" target="0Ox-fh44xJBKeiEa8GLi-27">
          <mxGeometry relative="1" as="geometry" />
        </mxCell>
        <mxCell id="0Ox-fh44xJBKeiEa8GLi-37" value="" style="edgeStyle=orthogonalEdgeStyle;rounded=0;orthogonalLoop=1;jettySize=auto;html=1;startArrow=none;startFill=0;endArrow=none;endFill=0;endSize=4;strokeWidth=1;" edge="1" parent="0Ox-fh44xJBKeiEa8GLi-1" source="0Ox-fh44xJBKeiEa8GLi-24" target="0Ox-fh44xJBKeiEa8GLi-36">
          <mxGeometry relative="1" as="geometry" />
        </mxCell>
        <mxCell id="0Ox-fh44xJBKeiEa8GLi-24" value="Transaction" style="whiteSpace=wrap;html=1;rounded=0;" vertex="1" parent="0Ox-fh44xJBKeiEa8GLi-1">
          <mxGeometry x="360" y="370" width="120" height="60" as="geometry" />
        </mxCell>
        <mxCell id="0Ox-fh44xJBKeiEa8GLi-27" value="amount" style="ellipse;whiteSpace=wrap;html=1;" vertex="1" parent="0Ox-fh44xJBKeiEa8GLi-1">
          <mxGeometry x="540" y="380" width="80" height="40" as="geometry" />
        </mxCell>
        <mxCell id="0Ox-fh44xJBKeiEa8GLi-28" value="date" style="ellipse;whiteSpace=wrap;html=1;" vertex="1" parent="0Ox-fh44xJBKeiEa8GLi-1">
          <mxGeometry x="510" y="260" width="80" height="40" as="geometry" />
        </mxCell>
        <mxCell id="0Ox-fh44xJBKeiEa8GLi-35" style="edgeStyle=orthogonalEdgeStyle;rounded=0;orthogonalLoop=1;jettySize=auto;html=1;exitX=1;exitY=0.5;exitDx=0;exitDy=0;entryX=0;entryY=0.5;entryDx=0;entryDy=0;startArrow=none;startFill=0;endArrow=none;endFill=0;endSize=4;strokeWidth=1;" edge="1" parent="0Ox-fh44xJBKeiEa8GLi-1" source="0Ox-fh44xJBKeiEa8GLi-29" target="0Ox-fh44xJBKeiEa8GLi-24">
          <mxGeometry relative="1" as="geometry" />
        </mxCell>
        <mxCell id="0Ox-fh44xJBKeiEa8GLi-29" value="&lt;u&gt;transId&lt;/u&gt;" style="ellipse;whiteSpace=wrap;html=1;" vertex="1" parent="0Ox-fh44xJBKeiEa8GLi-1">
          <mxGeometry x="210" y="380" width="80" height="40" as="geometry" />
        </mxCell>
        <mxCell id="0Ox-fh44xJBKeiEa8GLi-38" style="edgeStyle=orthogonalEdgeStyle;rounded=0;orthogonalLoop=1;jettySize=auto;html=1;exitX=0;exitY=0.25;exitDx=0;exitDy=0;startArrow=none;startFill=0;endArrow=none;endFill=0;endSize=4;strokeWidth=1;" edge="1" parent="0Ox-fh44xJBKeiEa8GLi-1" source="0Ox-fh44xJBKeiEa8GLi-36">
          <mxGeometry relative="1" as="geometry">
            <mxPoint x="350" y="560" as="targetPoint" />
          </mxGeometry>
        </mxCell>
        <mxCell id="0Ox-fh44xJBKeiEa8GLi-39" style="edgeStyle=orthogonalEdgeStyle;rounded=0;orthogonalLoop=1;jettySize=auto;html=1;exitX=0;exitY=0.75;exitDx=0;exitDy=0;startArrow=none;startFill=0;endArrow=none;endFill=0;endSize=4;strokeWidth=1;" edge="1" parent="0Ox-fh44xJBKeiEa8GLi-1" source="0Ox-fh44xJBKeiEa8GLi-36">
          <mxGeometry relative="1" as="geometry">
            <mxPoint x="500" y="560" as="targetPoint" />
          </mxGeometry>
        </mxCell>
        <mxCell id="0Ox-fh44xJBKeiEa8GLi-36" value="ISA" style="triangle;whiteSpace=wrap;html=1;rounded=0;direction=north;" vertex="1" parent="0Ox-fh44xJBKeiEa8GLi-1">
          <mxGeometry x="380" y="460" width="80" height="60" as="geometry" />
        </mxCell>
        <mxCell id="0Ox-fh44xJBKeiEa8GLi-42" value="Charge" style="rounded=0;whiteSpace=wrap;html=1;" vertex="1" parent="0Ox-fh44xJBKeiEa8GLi-1">
          <mxGeometry x="300" y="560" width="100" height="50" as="geometry" />
        </mxCell>
        <mxCell id="0Ox-fh44xJBKeiEa8GLi-45" style="edgeStyle=orthogonalEdgeStyle;rounded=0;orthogonalLoop=1;jettySize=auto;html=1;exitX=1;exitY=0.5;exitDx=0;exitDy=0;entryX=0;entryY=0.5;entryDx=0;entryDy=0;startArrow=none;startFill=0;endArrow=none;endFill=0;endSize=4;strokeWidth=1;" edge="1" parent="0Ox-fh44xJBKeiEa8GLi-1" source="0Ox-fh44xJBKeiEa8GLi-43" target="0Ox-fh44xJBKeiEa8GLi-44">
          <mxGeometry relative="1" as="geometry" />
        </mxCell>
        <mxCell id="0Ox-fh44xJBKeiEa8GLi-43" value="Payment" style="rounded=0;whiteSpace=wrap;html=1;" vertex="1" parent="0Ox-fh44xJBKeiEa8GLi-1">
          <mxGeometry x="460" y="560" width="100" height="50" as="geometry" />
        </mxCell>
        <mxCell id="0Ox-fh44xJBKeiEa8GLi-44" value="payMethod" style="ellipse;whiteSpace=wrap;html=1;" vertex="1" parent="0Ox-fh44xJBKeiEa8GLi-1">
          <mxGeometry x="650" y="565" width="80" height="40" as="geometry" />
        </mxCell>
      </root>
    </mxGraphModel>
  </diagram>
</mxfile>
